<svg xmlns="http://www.w3.org/2000/svg" width="1024" height="1024" viewBox="0 0 1024 1024">
  <defs>
    <linearGradient id="tile" x1="0" y1="0" x2="0" y2="1">
      <stop offset="0%" stop-color="#241d14"/>
      <stop offset="100%" stop-color="#100d09"/>
    </linearGradient>
    <radialGradient id="glow" cx="50%" cy="42%" r="60%">
      <stop offset="0%" stop-color="#ffab2e" stop-opacity="0.16"/>
      <stop offset="100%" stop-color="#ffab2e" stop-opacity="0"/>
    </radialGradient>
  </defs>
  <rect width="1024" height="1024" rx="225.28" fill="url(#tile)"/>
  <rect width="1024" height="1024" rx="225.28" fill="url(#glow)"/>
  <rect x="6" y="6" width="1012" height="1012" rx="215.04" fill="none" stroke="#f2dfb0" stroke-opacity="0.12" stroke-width="6"/>
  <circle cx="120.47" cy="120.47" r="14.68" fill="#ffab2e" opacity="1"/>
  <circle cx="120.47" cy="120.47" r="14.68" fill="#ffab2e" opacity="1"/>
  <circle cx="169.41" cy="120.47" r="14.68" fill="#ffab2e" opacity="1"/>
  <circle cx="120.47" cy="169.41" r="14.68" fill="#ffab2e" opacity="1"/>
  <circle cx="218.35" cy="120.47" r="14.68" fill="#ffab2e" opacity="1"/>
  <circle cx="120.47" cy="218.35" r="14.68" fill="#ffab2e" opacity="1"/>
  <circle cx="903.53" cy="120.47" r="14.68" fill="#ffab2e" opacity="1"/>
  <circle cx="903.53" cy="120.47" r="14.68" fill="#ffab2e" opacity="1"/>
  <circle cx="854.59" cy="120.47" r="14.68" fill="#ffab2e" opacity="1"/>
  <circle cx="903.53" cy="169.41" r="14.68" fill="#ffab2e" opacity="1"/>
  <circle cx="805.65" cy="120.47" r="14.68" fill="#ffab2e" opacity="1"/>
  <circle cx="903.53" cy="218.35" r="14.68" fill="#ffab2e" opacity="1"/>
  <circle cx="120.47" cy="903.53" r="14.68" fill="#ffab2e" opacity="1"/>
  <circle cx="120.47" cy="903.53" r="14.68" fill="#ffab2e" opacity="1"/>
  <circle cx="169.41" cy="903.53" r="14.68" fill="#ffab2e" opacity="1"/>
  <circle cx="120.47" cy="854.59" r="14.68" fill="#ffab2e" opacity="1"/>
  <circle cx="218.35" cy="903.53" r="14.68" fill="#ffab2e" opacity="1"/>
  <circle cx="120.47" cy="805.65" r="14.68" fill="#ffab2e" opacity="1"/>
  <circle cx="903.53" cy="903.53" r="14.68" fill="#ffab2e" opacity="1"/>
  <circle cx="903.53" cy="903.53" r="14.68" fill="#ffab2e" opacity="1"/>
  <circle cx="854.59" cy="903.53" r="14.68" fill="#ffab2e" opacity="1"/>
  <circle cx="903.53" cy="854.59" r="14.68" fill="#ffab2e" opacity="1"/>
  <circle cx="805.65" cy="903.53" r="14.68" fill="#ffab2e" opacity="1"/>
  <circle cx="903.53" cy="805.65" r="14.68" fill="#ffab2e" opacity="1"/>
  <circle cx="267.29" cy="365.18" r="14.68" fill="#f2dfb0" opacity="1"/>
  <circle cx="316.24" cy="365.18" r="14.68" fill="#6b5017" opacity="0.22"/>
  <circle cx="365.18" cy="365.18" r="14.68" fill="#6b5017" opacity="0.22"/>
  <circle cx="414.12" cy="365.18" r="14.68" fill="#6b5017" opacity="0.22"/>
  <circle cx="463.06" cy="365.18" r="14.68" fill="#f2dfb0" opacity="1"/>
  <circle cx="267.29" cy="414.12" r="14.68" fill="#f2dfb0" opacity="1"/>
  <circle cx="316.24" cy="414.12" r="14.68" fill="#6b5017" opacity="0.22"/>
  <circle cx="365.18" cy="414.12" r="14.68" fill="#6b5017" opacity="0.22"/>
  <circle cx="414.12" cy="414.12" r="14.68" fill="#6b5017" opacity="0.22"/>
  <circle cx="463.06" cy="414.12" r="14.68" fill="#f2dfb0" opacity="1"/>
  <circle cx="267.29" cy="463.06" r="14.68" fill="#f2dfb0" opacity="1"/>
  <circle cx="316.24" cy="463.06" r="14.68" fill="#6b5017" opacity="0.22"/>
  <circle cx="365.18" cy="463.06" r="14.68" fill="#6b5017" opacity="0.22"/>
  <circle cx="414.12" cy="463.06" r="14.68" fill="#6b5017" opacity="0.22"/>
  <circle cx="463.06" cy="463.06" r="14.68" fill="#f2dfb0" opacity="1"/>
  <circle cx="267.29" cy="512.00" r="14.68" fill="#f2dfb0" opacity="1"/>
  <circle cx="316.24" cy="512.00" r="14.68" fill="#6b5017" opacity="0.22"/>
  <circle cx="365.18" cy="512.00" r="14.68" fill="#6b5017" opacity="0.22"/>
  <circle cx="414.12" cy="512.00" r="14.68" fill="#6b5017" opacity="0.22"/>
  <circle cx="463.06" cy="512.00" r="14.68" fill="#f2dfb0" opacity="1"/>
  <circle cx="267.29" cy="560.94" r="14.68" fill="#6b5017" opacity="0.22"/>
  <circle cx="316.24" cy="560.94" r="14.68" fill="#f2dfb0" opacity="1"/>
  <circle cx="365.18" cy="560.94" r="14.68" fill="#6b5017" opacity="0.22"/>
  <circle cx="414.12" cy="560.94" r="14.68" fill="#f2dfb0" opacity="1"/>
  <circle cx="463.06" cy="560.94" r="14.68" fill="#6b5017" opacity="0.22"/>
  <circle cx="267.29" cy="609.88" r="14.68" fill="#6b5017" opacity="0.22"/>
  <circle cx="316.24" cy="609.88" r="14.68" fill="#f2dfb0" opacity="1"/>
  <circle cx="365.18" cy="609.88" r="14.68" fill="#6b5017" opacity="0.22"/>
  <circle cx="414.12" cy="609.88" r="14.68" fill="#f2dfb0" opacity="1"/>
  <circle cx="463.06" cy="609.88" r="14.68" fill="#6b5017" opacity="0.22"/>
  <circle cx="267.29" cy="658.82" r="14.68" fill="#6b5017" opacity="0.22"/>
  <circle cx="316.24" cy="658.82" r="14.68" fill="#6b5017" opacity="0.22"/>
  <circle cx="365.18" cy="658.82" r="14.68" fill="#f2dfb0" opacity="1"/>
  <circle cx="414.12" cy="658.82" r="14.68" fill="#6b5017" opacity="0.22"/>
  <circle cx="463.06" cy="658.82" r="14.68" fill="#6b5017" opacity="0.22"/>
  <circle cx="560.94" cy="365.18" r="14.68" fill="#6b5017" opacity="0.22"/>
  <circle cx="609.88" cy="365.18" r="14.68" fill="#ffab2e" opacity="1"/>
  <circle cx="658.82" cy="365.18" r="14.68" fill="#ffab2e" opacity="1"/>
  <circle cx="707.76" cy="365.18" r="14.68" fill="#ffab2e" opacity="1"/>
  <circle cx="756.71" cy="365.18" r="14.68" fill="#ffab2e" opacity="1"/>
  <circle cx="560.94" cy="414.12" r="14.68" fill="#ffab2e" opacity="1"/>
  <circle cx="609.88" cy="414.12" r="14.68" fill="#6b5017" opacity="0.22"/>
  <circle cx="658.82" cy="414.12" r="14.68" fill="#6b5017" opacity="0.22"/>
  <circle cx="707.76" cy="414.12" r="14.68" fill="#6b5017" opacity="0.22"/>
  <circle cx="756.71" cy="414.12" r="14.68" fill="#6b5017" opacity="0.22"/>
  <circle cx="560.94" cy="463.06" r="14.68" fill="#ffab2e" opacity="1"/>
  <circle cx="609.88" cy="463.06" r="14.68" fill="#6b5017" opacity="0.22"/>
  <circle cx="658.82" cy="463.06" r="14.68" fill="#6b5017" opacity="0.22"/>
  <circle cx="707.76" cy="463.06" r="14.68" fill="#6b5017" opacity="0.22"/>
  <circle cx="756.71" cy="463.06" r="14.68" fill="#6b5017" opacity="0.22"/>
  <circle cx="560.94" cy="512.00" r="14.68" fill="#6b5017" opacity="0.22"/>
  <circle cx="609.88" cy="512.00" r="14.68" fill="#ffab2e" opacity="1"/>
  <circle cx="658.82" cy="512.00" r="14.68" fill="#ffab2e" opacity="1"/>
  <circle cx="707.76" cy="512.00" r="14.68" fill="#ffab2e" opacity="1"/>
  <circle cx="756.71" cy="512.00" r="14.68" fill="#6b5017" opacity="0.22"/>
  <circle cx="560.94" cy="560.94" r="14.68" fill="#6b5017" opacity="0.22"/>
  <circle cx="609.88" cy="560.94" r="14.68" fill="#6b5017" opacity="0.22"/>
  <circle cx="658.82" cy="560.94" r="14.68" fill="#6b5017" opacity="0.22"/>
  <circle cx="707.76" cy="560.94" r="14.68" fill="#6b5017" opacity="0.22"/>
  <circle cx="756.71" cy="560.94" r="14.68" fill="#ffab2e" opacity="1"/>
  <circle cx="560.94" cy="609.88" r="14.68" fill="#6b5017" opacity="0.22"/>
  <circle cx="609.88" cy="609.88" r="14.68" fill="#6b5017" opacity="0.22"/>
  <circle cx="658.82" cy="609.88" r="14.68" fill="#6b5017" opacity="0.22"/>
  <circle cx="707.76" cy="609.88" r="14.68" fill="#6b5017" opacity="0.22"/>
  <circle cx="756.71" cy="609.88" r="14.68" fill="#ffab2e" opacity="1"/>
  <circle cx="560.94" cy="658.82" r="14.68" fill="#ffab2e" opacity="1"/>
  <circle cx="609.88" cy="658.82" r="14.68" fill="#ffab2e" opacity="1"/>
  <circle cx="658.82" cy="658.82" r="14.68" fill="#ffab2e" opacity="1"/>
  <circle cx="707.76" cy="658.82" r="14.68" fill="#ffab2e" opacity="1"/>
  <circle cx="756.71" cy="658.82" r="14.68" fill="#6b5017" opacity="0.22"/>
</svg>
